HIERARCHY
ROOT Bip001_Pelvis
{
  OFFSET 33.2923 95.8902 -28.781
  CHANNELS 6 Xposition Yposition Zposition Zrotation Xrotation Yrotation
  JOINT Bip001_Spine
  {
    OFFSET 1.4188e-005 10.2191 -0.0116013
    CHANNELS 3 Zrotation Xrotation Yrotation
    JOINT Bip001_L_Thigh
    {
      OFFSET 11.0458 -10.2192 0.0116197
      CHANNELS 3 Zrotation Xrotation Yrotation
      JOINT Bip001_L_Calf
      {
        OFFSET -0.707118 -44.0221 0.360014
        CHANNELS 3 Zrotation Xrotation Yrotation
        JOINT Bip001_L_Foot
        {
          OFFSET -0.651902 -40.5938 -3.56146
          CHANNELS 3 Zrotation Xrotation Yrotation
          JOINT Bip001_L_Toe0
          {
            OFFSET 0.0530839 -10.2181 13.1504
            CHANNELS 3 Zrotation Xrotation Yrotation
            End Site
            {
              OFFSET -1.02532e-005 0 7.55606
            }
          }
        }
      }
    }
    JOINT Bip001_R_Thigh
    {
      OFFSET -11.0458 -10.2191 0.0115893
      CHANNELS 3 Zrotation Xrotation Yrotation
      JOINT Bip001_R_Calf
      {
        OFFSET 0.706994 -44.0221 0.35984
        CHANNELS 3 Zrotation Xrotation Yrotation
        JOINT Bip001_R_Foot
        {
          OFFSET 0.651786 -40.5938 -3.5613
          CHANNELS 3 Zrotation Xrotation Yrotation
          JOINT Bip001_R_Toe0
          {
            OFFSET -0.0531479 -10.2181 13.1504
            CHANNELS 3 Zrotation Xrotation Yrotation
            End Site
            {
              OFFSET -1.02894e-005 0 7.55606
            }
          }
        }
      }
    }
    JOINT Bip001_Spine1
    {
      OFFSET 1.87041e-005 14.5736 1.08638
      CHANNELS 3 Zrotation Xrotation Yrotation
      JOINT Bip001_Spine2
      {
        OFFSET 2.24614e-005 14.5058 -1.69078
        CHANNELS 3 Zrotation Xrotation Yrotation
        JOINT Bip001_Neck
        {
          OFFSET 2.20278e-005 15.3945 -0.489414
          CHANNELS 3 Zrotation Xrotation Yrotation
          JOINT Bip001_L_Clavicle
          {
            OFFSET 6.06036 -0.000579998 0.00836775
            CHANNELS 3 Zrotation Xrotation Yrotation
            JOINT Bip001_L_UpperArm
            {
              OFFSET 11.5509 -0.0600302 0.00193952
              CHANNELS 3 Zrotation Xrotation Yrotation
              JOINT Bip001_L_Forearm
              {
                OFFSET 25.9523 0.0806089 -2.15551
                CHANNELS 3 Zrotation Xrotation Yrotation
                JOINT Bip001_L_Hand
                {
                  OFFSET 32.2476 0.153767 1.63968
                  CHANNELS 3 Zrotation Xrotation Yrotation
                  JOINT Bip001_L_Finger0
                  {
                    OFFSET 6.04639 -2.20976 5.90322
                    CHANNELS 3 Zrotation Xrotation Yrotation
                    End Site
                    {
                      OFFSET 4.22376 -1.43895 0.606486
                    }
                  }
                  JOINT Bip001_L_Finger1
                  {
                    OFFSET 11.0826 -0.704819 -0.198153
                    CHANNELS 3 Zrotation Xrotation Yrotation
                    End Site
                    {
                      OFFSET 6.20028 -0.397518 -0.0787166
                    }
                  }
                }
              }
            }
          }
          JOINT Bip001_R_Clavicle
          {
            OFFSET -6.06036 -0.000563197 0.00835105
            CHANNELS 3 Zrotation Xrotation Yrotation
            JOINT Bip001_R_UpperArm
            {
              OFFSET -11.5509 -0.0599978 0.00190698
              CHANNELS 3 Zrotation Xrotation Yrotation
              JOINT Bip001_R_Forearm
              {
                OFFSET -25.9523 0.080682 -2.1559
                CHANNELS 3 Zrotation Xrotation Yrotation
                JOINT Bip001_R_Hand
                {
                  OFFSET -32.2476 0.153858 1.63991
                  CHANNELS 3 Zrotation Xrotation Yrotation
                  JOINT Bip001_R_Finger0
                  {
                    OFFSET -6.04641 -2.20974 5.90321
                    CHANNELS 3 Zrotation Xrotation Yrotation
                    End Site
                    {
                      OFFSET -4.22376 -1.43894 0.606474
                    }
                  }
                  JOINT Bip001_R_Finger1
                  {
                    OFFSET -11.0826 -0.704789 -0.198184
                    CHANNELS 3 Zrotation Xrotation Yrotation
                    End Site
                    {
                      OFFSET -6.20028 -0.397501 -0.0787338
                    }
                  }
                }
              }
            }
          }
          JOINT Bip001_Head
          {
            OFFSET 1.09673e-005 11.2744 2.05948
            CHANNELS 3 Zrotation Xrotation Yrotation
            End Site
            {
              OFFSET 2.89576e-005 20.8808 -2.77728e-005
            }
          }
        }
      }
    }
  }
}
MOTION
Frames:	16
Frame Time:	0.04
32.4103 95.9112 -29.5465 0.413046 0.0484563 0.803525 -0.128641 3.14739 0.145577 5.07214 -5.15467 5.52771 -0.668737 7.44716 -10.2467 4.74585 -1.28363 -0.193452 -3.10105 -4.72179 5.02563 -3.15206 -5.62175 -0.790676 0.379546 11.0921 -0.18312 -5.36679 -9.55114 2.23285 1.88702 -6.80511 2.3973 -0.271337 6.29442 0.299071 -0.271338 6.29445 0.299072 2.36995 -2.93821 -4.28059 -25.9482 4.22949 -3.01589 -49.2167 40.3314 -1.12831 11.8599 -0.487664 -24.4538 7.26736 0.970833 -1.82377 1.59028e-015 -3.18055e-015 -0 1.59028e-015 -6.36111e-015 -0 28.273 8.23822 8.61536 48.4561 41.4902 2.35623 -7.96676 29.0684 4.96042 -9.97277 -10.636 7.54559 -2.38542e-015 0 7.95139e-016 -1.59028e-015 3.18056e-015 7.95139e-016 -4.09632 20.1215 -1.83185 
32.3859 95.913 -29.5417 0.321225 -0.0549796 0.635532 -0.11378 3.2088 0.173049 5.17597 -5.13521 5.62277 -0.705942 7.55884 -10.2328 5.01269 -1.23523 -0.193448 -3.04497 -4.82075 4.99202 -3.05789 -5.56093 -0.806636 0.341703 10.996 -0.23607 -5.31736 -9.5265 2.43804 1.88617 -6.78481 2.3972 -0.237845 6.41723 0.353323 -0.237846 6.41725 0.353324 2.5319 -3.07891 -4.39001 -25.8734 4.40558 -3.2564 -49.4875 40.3531 -0.967801 11.8257 -0.569545 -24.5276 7.12374 0.968849 -1.82972 1.59028e-015 -3.18055e-015 4.77083e-015 4.77083e-015 0 1.59028e-015 27.998 8.37062 8.60315 47.7445 41.3171 3.35293 -9.81847 26.4344 7.39517 -11.5203 -10.6026 6.24017 8.82781e-032 -3.18055e-015 1.59028e-015 -1.59028e-015 -3.18056e-015 1.59028e-015 -4.19149 20.0685 -1.85686 
32.3672 95.9146 -29.5229 0.256963 -0.227086 0.507205 -0.0936652 3.25303 0.196693 5.21111 -4.95737 5.37063 -0.705437 7.51745 -9.955 4.91976 -1.25481 -0.19345 -3.10706 -4.85338 5.02677 -3.00286 -5.40262 -0.772719 0.339638 10.9124 -0.156307 -5.31745 -9.48643 2.45636 1.87472 -6.74057 2.3725 -0.199193 6.50571 0.399133 -0.199128 6.50573 0.399433 2.71614 -3.03131 -4.52827 -25.9424 4.36218 -3.42519 -49.5908 40.7053 -0.856005 11.7788 -0.852133 -24.7525 7.10817 0.820102 -1.87572 3.18055e-015 6.36111e-015 -3.18055e-015 5.29669e-031 9.54167e-015 -3.18055e-015 27.7578 8.40631 8.84337 46.7782 41.0319 4.42552 -11.7756 23.5141 9.9879 -12.6548 -9.76217 5.10031 4.77083e-015 -6.36111e-015 -7.95139e-016 3.18055e-015 -9.54167e-015 -7.95139e-016 -4.38158 19.9759 -1.86926 
32.348 95.9091 -29.5341 0.205942 -0.240102 0.366515 -0.0708175 3.24195 0.201073 5.23971 -4.92399 5.36042 -0.70037 7.54183 -9.77968 4.98086 -1.2402 -0.193449 -3.03165 -4.88915 4.97915 -2.98847 -5.37932 -0.602913 0.41257 10.8544 -0.083113 -5.34883 -9.45369 2.37346 1.86407 -6.70594 2.35803 -0.153307 6.48362 0.410192 -0.1534 6.48364 0.40957 2.78502 -2.9747 -4.54849 -26.0665 4.2955 -3.42387 -49.4844 41.0206 -0.835506 11.7288 -1.2173 -25.1411 7.12651 0.945917 -1.8342 0 3.18055e-015 -0 0 0 -0 27.6878 8.45306 9.13173 45.3795 40.6095 5.80877 -13.4162 20.6726 12.3962 -13.6012 -8.56606 4.30506 3.18055e-015 9.54166e-015 1.59028e-015 3.18055e-015 9.54167e-015 1.59028e-015 -4.49921 20.0382 -1.82062 
32.3103 95.9085 -29.5151 0.168257 -0.278432 0.346558 -0.0576424 3.22454 0.179495 5.30088 -4.87126 5.4804 -0.697571 7.60905 -9.84581 4.8963 -1.3433 -0.184669 -3.07362 -4.82455 4.99926 -2.93994 -5.25869 -0.248935 0.487103 10.7453 -0.1032 -5.42848 -9.41046 2.10083 1.85245 -6.66812 2.35631 -0.121094 6.43584 0.363067 -0.120724 6.43586 0.363036 2.74092 -2.99931 -4.49375 -26.1262 4.30693 -3.31827 -49.3254 40.9362 -0.965802 11.7919 -1.21555 -25.4592 7.38695 0.843337 -1.97291 -0 -3.18055e-015 -0 -0 -3.18056e-015 -0 27.8451 8.58716 9.38271 43.849 40.3686 7.24287 -14.8151 17.8948 14.3873 -14.8278 -7.18498 3.90221 -6.36111e-015 -6.36111e-015 1.59028e-015 8.82782e-032 -3.18056e-015 1.59028e-015 -4.34616 20.1771 -1.83557 
32.2777 95.9005 -29.4603 0.17138 -0.468109 0.412886 -0.0583082 3.22544 0.166047 5.33626 -4.73303 6.82267 -0.515747 7.79011 -11.2168 4.80392 -1.56134 -0.178334 -3.10632 -4.76515 5.01442 -2.89302 -5.05514 -0.0163573 0.499438 10.7904 -0.121322 -5.47418 -9.42898 1.88309 1.84694 -6.65529 2.33002 -0.126298 6.45071 0.336189 -0.126297 6.4507 0.336189 2.70444 -3.10944 -4.47516 -25.9992 4.42329 -3.31821 -49.1859 40.3776 -1.29705 11.6706 -1.23956 -25.7117 7.7023 0.952996 -1.97573 -3.18055e-015 -3.18055e-015 -0 1.76556e-031 -6.36111e-015 1.59028e-015 27.7869 8.78269 9.63831 42.5331 39.6024 8.86224 -15.8892 15.5031 16.1102 -15.7882 -5.65926 3.50211 -6.36111e-015 -6.36111e-015 4.77083e-015 -6.36111e-015 -6.36111e-015 1.59028e-015 -4.13329 20.3193 -1.90546 
32.3215 95.8973 -29.5201 0.311817 -0.44021 0.250716 -0.0978157 3.1872 0.193715 5.13575 -4.6672 6.49196 -0.452279 7.6276 -10.7513 4.76521 -1.41794 -0.175467 -3.07214 -4.78294 5.00051 -3.06335 -5.2354 0.710747 0.731357 11.0283 -0.250621 -5.60787 -9.42411 1.41028 1.84598 -6.65305 2.33439 -0.207066 6.37405 0.395474 -0.207066 6.37406 0.395475 2.68692 -3.19449 -4.43673 -25.866 4.48936 -3.23343 -49.0121 39.8559 -1.74507 11.7893 -0.918127 -25.9651 7.63502 0.873058 -2.18241 2.64834e-031 -3.18055e-015 4.77083e-015 3.18055e-015 -3.18056e-015 3.18055e-015 27.7297 9.04762 10.1573 41.5854 39.1183 9.67376 -17.1562 12.6504 18.0555 -16.6076 -3.97852 2.90837 -3.18055e-015 -3.18055e-015 4.77083e-015 6.36111e-015 0 1.59028e-015 -3.96332 20.4536 -1.93847 
32.3017 95.8927 -29.501 0.317562 -0.532921 0.326385 -0.0985348 3.18138 0.196139 5.16529 -4.65476 6.92547 -0.407294 7.80861 -11.2036 4.71736 -1.54886 -0.171203 -3.07948 -4.71767 4.96898 -3.06163 -5.11728 0.945059 0.800908 11.0363 -0.304762 -5.67295 -9.43364 1.17679 1.84321 -6.637 2.33484 -0.203808 6.36242 0.399343 -0.203669 6.36243 0.398943 2.49917 -3.28044 -4.4008 -25.7418 4.55522 -3.06639 -48.5332 39.786 -2.35258 11.772 -1.12547 -26.3062 7.63181 0.848028 -2.22418 -3.18055e-015 3.18055e-015 -0 -3.18055e-015 3.18056e-015 1.59028e-015 27.6945 9.29486 10.665 40.8295 38.7025 10.1333 -18.2204 9.70009 20.0314 -17.0168 -2.49679 2.48132 -3.18055e-015 -3.18055e-015 3.18055e-015 3.18055e-015 0 1.59028e-015 -3.6625 20.6241 -2.06129 
32.3012 95.8855 -29.4937 0.42856 -0.509151 0.409262 -0.12998 3.14272 0.206769 5.05899 -4.57598 6.68694 -0.398082 7.64209 -11.0669 4.78638 -1.42864 -0.178734 -3.01975 -4.77401 4.9511 -3.13943 -5.1797 1.17442 0.883151 11.2321 -0.273562 -5.7917 -9.49192 0.838891 1.84695 -6.62617 2.30798 -0.270612 6.28494 0.420149 -0.271103 6.28495 0.422674 2.5168 -3.19646 -4.45224 -25.7802 4.43569 -2.98533 -48.0829 39.7305 -2.78912 11.6613 -1.55312 -26.7042 8.01854 0.908291 -2.25453 8.82781e-032 3.18055e-015 -1.59028e-015 1.76556e-031 3.18056e-015 -3.18055e-015 27.5443 9.39907 11.2375 40.086 38.3078 10.579 -18.8054 7.2008 21.4353 -16.9955 -1.23271 2.22602 -6.36111e-015 -3.18055e-015 -0 -3.18055e-015 0 -0 -3.66173 20.648 -2.10311 
32.2739 95.8802 -29.4654 0.467538 -0.577027 0.567918 -0.150367 3.11745 0.179578 5.02488 -4.49574 6.49558 -0.386178 7.62636 -11.0055 5.13552 -1.20483 -0.204589 -2.96165 -4.77802 4.9433 -3.11439 -5.08794 1.01639 0.824133 11.3307 -0.161872 -5.84358 -9.54337 0.791674 1.85607 -6.64018 2.31325 -0.311534 6.23442 0.368994 -0.311453 6.23443 0.368492 2.41409 -3.05622 -4.36436 -25.6973 4.29513 -2.91428 -47.7703 39.3606 -3.15233 11.7095 -1.43609 -27.0125 8.3133 0.890663 -2.44239 6.36111e-015 3.18055e-015 -4.77083e-015 9.54166e-015 3.18056e-015 -4.77083e-015 27.8336 9.46801 11.7383 39.0511 38.3835 10.6878 -19.3233 4.63447 22.5403 -15.9557 -0.184885 2.27323 -0 0 1.59028e-015 0 0 -0 -3.58045 20.6907 -2.07669 
32.2817 95.8786 -29.4601 0.62753 -0.474634 0.744922 -0.181946 3.07152 0.15717 4.91964 -4.5058 6.24882 -0.36001 7.48503 -10.7598 4.14277 -1.70585 -0.143104 -3.22978 -4.30665 5.20453 -3.27636 -5.20335 0.746515 0.847086 11.5478 -0.0627991 -5.87799 -9.68757 0.818752 1.8553 -6.6222 2.27382 -0.372535 6.1425 0.317172 -0.372536 6.1425 0.317173 2.19767 -3.09264 -4.28159 -25.5285 4.33875 -2.82062 -47.5641 38.9712 -3.53573 11.7262 -1.35599 -27.22 8.39107 0.984012 -2.31146 -0 0 1.59028e-015 -0 0 1.59028e-015 27.7676 9.58813 12.1061 38.9205 37.9497 10.7133 -19.6595 3.08754 23.0382 -14.8399 0.720914 2.58723 3.18055e-015 0 -3.18055e-015 -3.18055e-015 -3.18056e-015 -0 -3.38209 20.7685 -2.13109 
32.2505 95.887 -29.4119 0.68935 -0.51668 0.932821 -0.194548 3.05516 0.157053 4.87438 -4.33987 5.6921 -0.450295 7.22517 -10.4748 4.39211 -1.318 -0.167625 -3.15025 -4.55168 5.04183 -3.29212 -5.07241 0.428588 0.778345 11.5454 -0.0158577 -5.89259 -9.74082 0.896308 1.86317 -6.64732 2.29574 -0.396431 6.10969 0.317691 -0.396403 6.10969 0.317681 2.09137 -3.05411 -4.23153 -25.3825 4.32036 -2.83652 -47.5522 38.7973 -3.69382 11.7131 -1.44518 -27.4478 8.41947 1.06989 -2.42821 -6.36111e-015 0 -0 -3.18055e-015 0 -1.59028e-015 27.8552 9.61562 12.3043 38.7265 37.9245 10.1509 -19.9435 1.38638 23.6169 -13.9678 1.23442 2.74918 3.18055e-015 6.36111e-015 3.18055e-015 -3.53113e-031 3.18056e-015 6.36111e-015 -3.15936 20.7394 -2.19887 
32.2238 95.8781 -29.3635 0.710632 -0.594968 1.08861 -0.208422 3.04896 0.157016 4.90042 -4.31947 6.47761 -0.295958 7.38768 -11.2817 3.99024 -1.76502 -0.137579 -3.25797 -4.30695 5.17494 -3.27317 -4.97905 0.121786 0.715421 11.6525 -0.0143035 -5.85752 -9.83413 1.02952 1.8674 -6.65436 2.29528 -0.426128 6.10203 0.31904 -0.426037 6.10204 0.319006 2.02965 -3.06383 -4.18577 -25.3003 4.31181 -2.73128 -47.5084 38.8196 -3.77636 11.7999 -1.38256 -27.6914 8.27383 0.93051 -2.52292 2.64834e-031 -9.54166e-015 1.59028e-015 -3.18055e-015 -9.54167e-015 3.18055e-015 27.8173 9.72022 12.6226 39.1507 37.7295 9.06665 -20.1942 0.0164895 24.0174 -13.0857 1.40805 3.0226 6.36111e-015 0 -0 9.54166e-015 0 -1.59028e-015 -2.9591 20.776 -2.25008 
32.2084 95.8836 -29.3227 0.752014 -0.5758 1.20758 -0.22059 3.0451 0.157012 4.89007 -4.33591 6.29674 -0.312405 7.40162 -11.1423 3.83297 -1.82448 -0.126287 -3.28166 -4.18904 5.15688 -3.29616 -4.91894 -0.0789739 0.696526 11.6165 0.00671346 -5.86123 -9.86593 1.08128 1.8716 -6.6638 2.29463 -0.451534 6.08608 0.320809 -0.451436 6.08609 0.32075 1.88819 -2.79358 -4.11774 -25.236 4.05627 -2.72034 -47.4516 38.8459 -3.80965 11.7499 -1.48559 -27.8078 8.51381 1.02589 -2.54645 -3.18055e-015 0 1.59028e-015 -3.18055e-015 0 3.18055e-015 27.9635 9.51894 12.8584 39.4183 38.3113 7.83335 -20.3634 -1.01191 24.1839 -12.7181 1.39358 3.06945 -6.36111e-015 0 1.59028e-015 -9.54166e-015 0 6.36111e-015 -2.83667 20.4964 -2.27801 
32.2007 95.8799 -29.2744 0.814185 -0.58074 1.2601 -0.236173 3.04225 0.156997 4.84955 -4.26432 6.35663 -0.339646 7.30206 -11.3473 4.06035 -1.58646 -0.14508 -3.24699 -4.35391 5.08391 -3.34841 -4.88802 -0.189399 0.703107 11.6578 -0.0213231 -5.8718 -9.95511 1.14257 1.87311 -6.66514 2.29428 -0.482882 6.08377 0.339549 -0.482799 6.0838 0.338942 1.88886 -2.63362 -4.15709 -25.3588 3.83528 -2.53932 -47.4481 38.8323 -3.76375 11.8275 -1.2908 -27.863 8.48137 1.0104 -2.47267 -3.18055e-015 3.18055e-015 1.59028e-015 0 0 -1.59028e-015 28.011 9.41681 12.9824 39.6309 38.9656 6.54358 -20.3843 -1.03909 24.0691 -12.4613 1.41292 2.89443 -6.36111e-015 -9.54166e-015 3.18055e-015 -9.54166e-015 -6.36111e-015 3.18055e-015 -3.08484 20.4299 -2.21731 
32.2306 95.8768 -29.2865 1.02314 -0.365646 1.31369 -0.284978 3.00394 0.156922 4.61115 -4.3163 5.99618 -0.303848 6.99349 -10.9971 3.97358 -1.44996 -0.145681 -3.23226 -4.28996 5.09022 -3.57417 -5.2307 -0.21379 0.795839 12.0233 -0.0955586 -5.88454 -10.1114 1.12636 1.87582 -6.6837 2.29773 -0.57995 6.00701 0.336354 -0.579927 6.00702 0.336123 1.9044 -2.36143 -4.14343 -25.2609 3.6061 -2.71417 -47.9265 38.4337 -3.3745 11.9398 -0.897691 -27.8415 8.45706 0.957547 -2.46722 -3.18055e-015 -3.18055e-015 4.77083e-015 1.76556e-031 -3.18056e-015 3.18055e-015 28.1276 9.17602 13.0466 39.9363 39.726 5.03378 -20.3754 -0.666794 23.8189 -11.9496 1.56442 2.71308 -8.82781e-032 3.18055e-015 1.59028e-015 3.18055e-015 -3.18056e-015 -0 -3.26831 20.1682 -2.13652 
